{"title":"The.Noite.2018.06.06.720p.WEB-DL.x264-Skylane77","magnet":"magnet:?xt=urn:btih:fdac754e7524040db0a8990d215beb8a2575e8de&dn=The.Noite.2018.06.06.720p.WEB-DL.x264-Skylane77&tr=udp%3A%2F%2Ftracker.leechers-paradise.org%3A6969&tr=udp%3A%2F%2Fzer0day.ch%3A1337&tr=udp%3A%2F%2Fopen.demonii.com%3A1337&tr=udp%3A%2F%2Ftracker.coppersurfer.tk%3A6969&tr=udp%3A%2F%2Fexodus.desync.com%3A6969","uploader":"beechbaron77","categoryP":"video","categoryS":"tv_shows","size":"671399522","seeders":"2","leechers":"0","description":"Karen Domingos; equipe brasileira de bobsled\r\n\r\nEntrevista com a fisiculturista Karen Domingos, NABBA World Champion 2017; entrevista com Edson Bindilatti, Odirlei Pessoni e Erick Vianna, da equipe brasileira de bobsled.\r\n\r\n--\r\nGeneral\r\nComplete name: The.Noite.com.Danilo.Gentili.2018.06.06.720p.WEB-DL.x264-Skylane77.mp4\r\nFormat: MPEG-4\r\nFormat profile: Base Media\r\nCodec ID: isom (isom/iso2/avc1/mp41)\r\nFile size: 640 MiB\r\nDuration: 59 min 11 s\r\nOverall bit rate: 1 513 kb/s\r\nWriting application: Lavf58.12.100\r\n\r\nVideo\r\nID: 1\r\nFormat: AVC\r\nFormat/Info: Advanced Video Codec\r\nFormat profile: Main@L3.1\r\nFormat settings: CABAC / 3 Ref Frames\r\nFormat settings, CABAC: Yes\r\nFormat settings, ReFrames: 3 frames\r\nCodec ID: avc1\r\nCodec ID/Info: Advanced Video Coding\r\nDuration: 59 min 11 s\r\nBit rate: 1 378 kb/s\r\nWidth: 1 280 pixels\r\nHeight: 720 pixels\r\nDisplay aspect ratio: 16:9\r\nFrame rate mode: Constant\r\nFrame rate: 30.000 FPS\r\nColor space: YUV\r\nChroma subsampling: 4:2:0\r\nBit depth: 8 bits\r\nScan type: Progressive\r\nBits/(Pixel*Frame): 0.050\r\nStream size: 583 MiB (91%)\r\nColor range: Limited\r\nColor primaries: BT.709\r\nTransfer characteristics: BT.709\r\nMatrix coefficients: BT.709\r\n\r\nAudio\r\nID: 2\r\nFormat: AAC\r\nFormat/Info: Advanced Audio Codec\r\nFormat profile: LC\r\nCodec ID: mp4a-40-2\r\nDuration: 59 min 11 s\r\nBit rate mode: Constant\r\nBit rate: 126 kb/s\r\nChannel(s): 2 channels\r\nChannel positions: Front: L R\r\nSampling rate: 44.1 kHz\r\nFrame rate: 43.066 FPS (1024 SPF)\r\nCompression mode: Lossy\r\nStream size: 53.2 MiB (8%)\r\nDefault: Yes\r\nAlternate group: 1","last_updated":"2018-06-08T12:13:29.912Z","parsed":{"xt":"urn:btih:fdac754e7524040db0a8990d215beb8a2575e8de","dn":"The.Noite.2018.06.06.720p.WEB-DL.x264-Skylane77","tr":["udp://exodus.desync.com:6969","udp://open.demonii.com:1337","udp://tracker.coppersurfer.tk:6969","udp://tracker.leechers-paradise.org:6969","udp://zer0day.ch:1337"],"infoHash":"fdac754e7524040db0a8990d215beb8a2575e8de","infoHashBuffer":{"type":"Buffer","data":[253,172,117,78,117,36,4,13,176,168,153,13,33,91,235,138,37,117,232,222]},"name":"The.Noite.2018.06.06.720p.WEB-DL.x264-Skylane77","announce":["udp://exodus.desync.com:6969","udp://open.demonii.com:1337","udp://tracker.coppersurfer.tk:6969","udp://tracker.leechers-paradise.org:6969","udp://zer0day.ch:1337"],"urlList":[]}}